HIERARCHY
ROOT Hips
{
	OFFSET -3.958830 18.904000 13.208200
	CHANNELS 6 Xposition Yposition Zposition Zrotation Yrotation Xrotation 
	JOINT LHipJoint
	{
		OFFSET 0.000000 0.000000 0.000000
		CHANNELS 3 Zrotation Yrotation Xrotation
		JOINT LeftUpLeg
		{
			OFFSET 1.800000 -1.400000 0.085000
			CHANNELS 3 Zrotation Yrotation Xrotation
			JOINT LeftLeg
			{
				OFFSET 2.215000 -6.000000 0.000000
				CHANNELS 3 Zrotation Yrotation Xrotation
				JOINT LeftFoot
				{
					OFFSET 2.500000 -6.900000 0.000000
					CHANNELS 3 Zrotation Yrotation Xrotation
					JOINT LeftToeBase
					{
						OFFSET 0.200000 -0.500000 1.950000
						CHANNELS 3 Zrotation Yrotation Xrotation
						End Site
						{
							OFFSET 0.000000 0.000000 0.000000
						}
					}
				}
			}
		}
	}
	JOINT RHipJoint
	{
		OFFSET 0.000000 0.000000 0.000000
		CHANNELS 3 Zrotation Yrotation Xrotation
		JOINT RightUpLeg
		{
			OFFSET -1.800000 -1.400000 0.085000
			CHANNELS 3 Zrotation Yrotation Xrotation
			JOINT RightLeg
			{
				OFFSET -2.215000 -6.000000 0.000000
				CHANNELS 3 Zrotation Yrotation Xrotation
				JOINT RightFoot
				{
					OFFSET -2.500000 -6.900000 0.000000
					CHANNELS 3 Zrotation Yrotation Xrotation
					JOINT RightToeBase
					{
						OFFSET -0.200000 -0.500000 1.950000
						CHANNELS 3 Zrotation Yrotation Xrotation
						End Site
						{
							OFFSET 0.000000 0.000000 0.000000
						}
					}
				}
			}
		}
	}
	JOINT LowerBack
	{
		OFFSET 0.000000 0.000000 0.000000
		CHANNELS 3 Zrotation Yrotation Xrotation
		JOINT Spine
		{
			OFFSET -0.087000 1.940000 -0.288900
			CHANNELS 3 Zrotation Yrotation Xrotation
			JOINT Spine1
			{
				OFFSET 0.000000 1.950000 0.060000
				CHANNELS 3 Zrotation Yrotation Xrotation
				JOINT Neck
				{
					OFFSET 0.000000 0.000000 0.000000
					CHANNELS 3 Zrotation Yrotation Xrotation
					JOINT Neck1
					{
						OFFSET 0.000000 1.600000 0.340000
						CHANNELS 3 Zrotation Yrotation Xrotation
						JOINT Head
						{
							OFFSET 0.000000 1.667000 -0.240000
							CHANNELS 3 Zrotation Yrotation Xrotation
							End Site
							{
								OFFSET 0.000000 0.000000 0.000000
							}
						}
					}
				}
				JOINT LeftShoulder
				{
					OFFSET 0.000000 0.000000 0.000000
					CHANNELS 3 Zrotation Yrotation Xrotation
					JOINT LeftArm
					{
						OFFSET 2.700000 1.550000 -0.730000
						CHANNELS 3 Zrotation Yrotation Xrotation
						JOINT LeftForeArm
						{
							OFFSET 5.450000 0.000000 0.000000
							CHANNELS 3 Zrotation Yrotation Xrotation
							JOINT LeftHand
							{
								OFFSET 3.450000 0.000000 0.000000
								CHANNELS 3 Zrotation Yrotation Xrotation
								JOINT LeftHandIndex1
								{
									OFFSET 0.750000 0.000000 0.000000
									CHANNELS 3 Zrotation Yrotation Xrotation
									End Site
									{
										OFFSET 0.000000 0.000000 0.000000
									}
								}
							}
						}
					}
				}
				JOINT RightShoulder
				{
					OFFSET 0.000000 0.000000 0.000000
					CHANNELS 3 Zrotation Yrotation Xrotation
					JOINT RightArm
					{
						OFFSET -2.700000 1.550000 -0.730000
						CHANNELS 3 Zrotation Yrotation Xrotation
						JOINT RightForeArm
						{
							OFFSET -5.450000 0.000000 0.000000
							CHANNELS 3 Zrotation Yrotation Xrotation
							JOINT RightHand
							{
								OFFSET -3.450000 0.000000 0.000000
								CHANNELS 3 Zrotation Yrotation Xrotation
								JOINT RightHandIndex1
								{
									OFFSET -0.750000 0.000000 0.000000
									CHANNELS 3 Zrotation Yrotation Xrotation
									End Site
									{
										OFFSET 0.000000 0.000000 0.000000
									}
								}
							}
						}
					}
				}
			}
		}
	}
}
MOTION
Frames: 7
Frame Time: 0.016667
1.668530 19.649950 -2.252380 -2.068613 38.159271 28.948806 -16.023547 12.456869 6.132798 -5.131671 -13.695152 -42.920770 12.436525 0.040928 -5.943859 1.088786 0.952110 3.918905 -3.012150 -1.669610 -2.832070 17.178793 -9.796261 4.076510 2.307196 8.356817 -34.923743 4.079356 -3.029522 14.282371 0.567539 -1.987784 2.284171 -1.512560 1.813450 0.699030 -1.940025 -5.222616 -10.067289 17.212621 13.084696 20.829524 9.274501 3.191200 -55.799111 13.398529 -13.216884 -50.324695 -29.455105 -9.907315 39.491889 -21.625120 -2.651350 42.140670 42.968619 42.776742 14.730130 -125.735978 -62.143195 66.299533 165.131694 6.451508 89.008452 -6.266869 0.131876 -1.427400 0.652520 0.124500 -0.364630 -71.931228 -42.193908 22.231420 11.430750 31.095433 4.526118 -130.388928 -32.024121 49.042507 5.564330 -2.487100 0.307200 -0.071830 1.519020 2.225680 
1.637210 19.705930 -2.293390 -1.964079 34.587134 25.301706 -16.911358 13.234619 4.929407 -5.529829 -12.139257 -39.114176 13.806214 -0.028548 -3.274752 1.023996 1.116227 3.847346 -2.861840 -1.516920 -2.702610 16.653627 -9.023926 2.994404 3.028365 7.433218 -30.296002 1.411949 -2.497224 14.772666 0.439402 -2.056835 2.215639 -1.414700 1.734730 0.719490 0.670589 -9.302630 -7.429033 17.667015 10.100685 12.762460 9.039788 2.907785 -48.712902 12.663331 -7.293872 -54.463510 -35.253081 2.648786 56.996470 -19.480800 0.622450 38.880330 52.162220 49.084336 25.250022 -111.995076 -58.154025 51.949521 164.446915 5.117403 80.632358 -6.192807 0.854815 -1.327260 0.571430 0.206680 -0.388370 -74.526421 -39.233419 17.126985 24.147288 52.975445 -9.697001 -129.069881 -16.145045 59.655248 2.745526 -4.327326 0.327900 -0.032200 1.520510 2.177630 
1.620620 19.767370 -2.326620 -1.482731 33.664867 21.017605 -17.133008 15.461135 5.236644 -5.394801 -10.013093 -35.928065 10.065794 0.556035 -3.573999 1.154641 1.213844 3.768267 -2.729830 -1.339700 -2.644130 16.120772 -8.418504 3.091114 3.062753 7.034241 -25.358893 -0.531822 -1.700940 14.753081 0.379010 -1.713687 2.314085 -1.373910 1.638040 0.713960 0.909593 -16.457610 -9.727116 21.543559 4.644236 26.326907 25.597156 7.982699 -46.056564 13.014797 -0.378999 -54.796792 -47.476021 12.540067 52.010961 -15.832870 1.953840 35.503220 57.161642 51.498791 21.524668 -87.581797 -30.036878 46.272676 159.946925 11.942078 71.266455 -5.199741 3.142048 -1.226610 0.426560 0.344980 -0.344150 -63.061280 -47.407339 33.257372 -72.221064 44.785191 -159.281305 -136.191238 24.192171 62.566239 2.759904 3.291812 0.398620 0.001620 1.455110 2.203660 
1.572110 19.759480 -2.353470 -0.743268 32.850206 20.123218 -17.463306 16.502550 5.423908 -3.026725 -8.826143 -36.375755 4.293440 1.126999 -3.260425 1.162907 1.298666 3.703795 -2.773780 -1.398150 -2.677180 15.688728 -7.802784 3.196547 2.230776 7.336587 -25.486730 -1.296551 -1.431562 18.353623 0.383959 -1.667955 2.314916 -1.429860 1.654990 0.687480 1.874851 -17.485366 -9.603027 17.709909 -11.172394 34.607398 1.301978 18.051359 -57.312727 19.265595 -6.030148 -53.120125 -42.507377 17.704188 61.233781 -8.855460 3.860710 32.221950 49.986561 46.633635 0.446616 -64.661739 -21.875087 40.869196 150.750861 13.286714 65.558153 -4.607403 3.755145 -1.084160 0.352430 0.388490 -0.382870 -63.204753 -1.656636 -10.993185 9.704989 44.342826 -8.016934 -132.615978 -21.172723 64.221104 5.139786 0.644318 0.362450 0.074410 1.533320 2.169850 
1.468730 19.792110 -2.515990 -2.030256 30.663561 14.553624 -17.487747 17.434084 5.185108 0.038360 -6.659545 -35.836934 0.277434 2.418576 3.061436 0.935238 1.702822 3.460410 -2.783190 -1.444940 -2.602600 15.644491 -7.396074 3.134290 4.191179 6.788590 -24.013386 -2.243070 -1.334172 24.724730 0.250682 -2.019449 2.062760 -1.407290 1.577380 0.596300 1.933623 -18.181222 -9.048003 6.178587 -23.765369 46.008801 -0.162602 28.933815 -66.105909 20.135142 -7.714931 -46.694570 -42.763202 24.353103 66.123997 -6.003520 3.242750 23.953790 48.043601 42.433557 -0.017311 -44.355623 -10.223215 37.582608 147.262398 7.264704 43.336509 -3.714145 4.426850 -0.792440 0.163100 0.484380 -0.542360 -55.401253 9.130324 3.326243 -19.007157 58.863311 -24.532342 -134.212557 -31.737896 53.948310 5.365730 0.416897 0.249620 0.290240 1.698120 2.064190 
1.428790 19.815750 -2.583090 -2.369785 34.120559 10.318490 -17.226862 17.483773 5.013569 2.019528 -5.068408 -33.424831 -3.752601 3.509671 4.330283 1.011451 2.034883 3.280070 -2.753700 -1.455770 -2.533760 15.806255 -7.878953 3.024658 5.576434 4.948614 -20.966842 -3.102009 -1.213410 26.072979 0.141074 -2.189157 1.915854 -1.443960 1.400680 0.558780 1.457935 -16.783069 -8.578803 -0.422474 -29.836785 56.778023 -7.544685 30.963667 -73.651613 22.071473 -9.851043 -47.100782 -41.796899 27.011553 68.780197 -5.848130 1.051080 19.414240 41.510551 42.859569 -1.545029 -30.153290 -9.133744 33.253678 141.581803 0.340711 20.849508 -3.483747 4.696401 -0.653900 -0.047360 0.585550 -0.599270 -52.984534 15.771438 3.604508 -12.212563 55.830972 -18.662034 -125.395959 -30.939830 37.526553 5.192221 0.250621 0.270790 0.263510 1.685840 2.032150 
0.616880 19.633770 -3.403140 1.659001 38.109869 -51.228148 -15.504799 15.283308 3.013771 18.103464 11.775660 25.801316 -2.093768 7.624986 8.838982 2.672342 6.511317 2.113172 -2.582380 -0.882740 -3.183750 17.630403 -9.672657 3.952224 -1.613503 -0.699220 41.402035 -1.558486 -7.396775 26.875756 -1.201028 -8.290044 -0.318197 -1.065580 1.856040 0.565760 -2.752478 -6.223235 -7.408813 -32.475205 -14.209523 135.612783 -19.491492 1.959275 -64.072298 21.552136 -18.078441 -31.082902 -47.488216 33.891300 40.804838 19.679560 -20.585540 -8.585510 28.689525 16.916814 -3.102175 -13.996216 19.503583 -8.030248 142.486526 -5.853650 -4.613679 -3.714046 4.666833 -1.119680 -0.177290 0.446220 -0.244600 -63.764273 35.747335 7.732823 0.441913 13.845469 -30.636756 -123.731495 -35.635494 18.887757 6.465827 -1.828687 0.521160 0.507670 1.655490 2.724120 
